<svg width="128" height="128" viewBox="0 0 128 128" xmlns="http://www.w3.org/2000/svg">
  <title>Chalkboard Addition</title><desc>Chalkboard showing two dots plus three dots equals five dots.</desc>
  <rect x="10" y="18" width="108" height="92" rx="8" fill="#2E7D32" stroke="#2D3142" stroke-width="4"/>
  <rect x="6" y="108" width="116" height="8" rx="2" fill="#A1887F" stroke="#5D4037" stroke-width="2"/>
  <!-- Two dots -->
  <circle cx="34" cy="54" r="6" fill="#BBDEFB" stroke="#E3F2FD" stroke-width="2"/>
  <circle cx="50" cy="54" r="6" fill="#BBDEFB" stroke="#E3F2FD" stroke-width="2"/>
  <!-- Plus -->
  <line x1="66" y1="48" x2="66" y2="60" stroke="#FFFFFF" stroke-width="3" stroke-linecap="round"/>
  <line x1="60" y1="54" x2="72" y2="54" stroke="#FFFFFF" stroke-width="3" stroke-linecap="round"/>
  <!-- Three dots -->
  <circle cx="86" cy="54" r="6" fill="#BBDEFB" stroke="#E3F2FD" stroke-width="2"/>
  <circle cx="102" cy="54" r="6" fill="#BBDEFB" stroke="#E3F2FD" stroke-width="2"/>
  <circle cx="118" cy="54" r="6" fill="#BBDEFB" stroke="#E3F2FD" stroke-width="2" transform="translate(-16,0)"/>
  <!-- Equals -->
  <line x1="44" y1="78" x2="84" y2="78" stroke="#FFFFFF" stroke-width="3" stroke-linecap="round"/>
  <line x1="44" y1="84" x2="84" y2="84" stroke="#FFFFFF" stroke-width="3" stroke-linecap="round"/>
  <!-- Five result dots -->
  <g transform="translate(88,76)">
    <circle cx="0" cy="18" r="6" fill="#C8E6C9" stroke="#E8F5E9" stroke-width="2"/>
    <circle cx="16" cy="18" r="6" fill="#C8E6C9" stroke="#E8F5E9" stroke-width="2"/>
    <circle cx="32" cy="18" r="6" fill="#C8E6C9" stroke="#E8F5E9" stroke-width="2"/>
    <circle cx="8" cy="34" r="6" fill="#C8E6C9" stroke="#E8F5E9" stroke-width="2"/>
    <circle cx="24" cy="34" r="6" fill="#C8E6C9" stroke="#E8F5E9" stroke-width="2"/>
  </g>
</svg>
