<svg width="128" height="128" viewBox="0 0 128 128" xmlns="http://www.w3.org/2000/svg">
  <title>Tutor Robot</title><desc>Smiling robot holding an open book.</desc>
  <!-- Head -->
  <rect x="34" y="18" width="60" height="44" rx="10" fill="#E1F5FE" stroke="#2D3142" stroke-width="4"/>
  <circle cx="64" cy="10" r="6" fill="#90CAF9" stroke="#2D3142" stroke-width="3"/>
  <line x1="64" y1="10" x2="64" y2="18" stroke="#2D3142" stroke-width="3"/>
  <!-- Eyes & mouth -->
  <circle cx="50" cy="38" r="5" fill="#2D3142"/>
  <circle cx="78" cy="38" r="5" fill="#2D3142"/>
  <path d="M50 48 Q64 56 78 48" fill="none" stroke="#2D3142" stroke-width="3" stroke-linecap="round"/>
  <!-- Book -->
  <path d="M24 70 h80 a6 6 0 0 1 6 6 v26 a6 6 0 0 1 -6 6 H24 a6 6 0 0 1 -6 -6 V76 a6 6 0 0 1 6 -6z"
        fill="#FFF3E0" stroke="#2D3142" stroke-width="4"/>
  <line x1="64" y1="70" x2="64" y2="108" stroke="#2D3142" stroke-width="3"/>
  <!-- Pages accent -->
  <path d="M24 76 Q44 66 64 76 Q84 66 104 76" fill="none" stroke="#FFB74D" stroke-width="3"/>
</svg>
